<svg xmlns="http://www.w3.org/2000/svg" width="56.355" height="56.355" viewBox="0 0 56.355 56.355">
  <g id="Component_21_3" data-name="Component 21 – 3" transform="translate(0 30.739) rotate(-45)">
    <path id="Path_81" data-name="Path 81" d="M1,0H9a1,1,0,0,1,1,1V9a1,1,0,0,1-1,1H1A1,1,0,0,1,0,9V1A1,1,0,0,1,1,0Z" transform="translate(0 13.226)" fill="#68d1c3"/>
    <rect id="Rectangle_54" data-name="Rectangle 54" width="36" height="30" rx="2" transform="translate(43.472) rotate(90)" fill="#0fa591"/>
    <path id="Path_84" data-name="Path 84" d="M1,0H9a1,1,0,0,1,1,1V9a1,1,0,0,1-1,1H1A1,1,0,0,1,0,9V1A1,1,0,0,1,1,0Z" transform="translate(0 26.226)" fill="#0fa591"/>
    <path id="Path_85" data-name="Path 85" d="M1,0H9a1,1,0,0,1,1,1V9a1,1,0,0,1-1,1H1A1,1,0,0,1,0,9V1A1,1,0,0,1,1,0Z" transform="translate(0 0.226)" fill="#94e5da"/>
  </g>
</svg>
